<svg  xmlns="http://www.w3.org/2000/svg" xmlns:xlink="http://www.w3.org/1999/xlink">
    <symbol id="instagram" viewBox="0 0 21 21">
        <path d="M10.0078 4.87388C7.16852 4.87388 4.87834 7.16406 4.87834 10.0033C4.87834 12.8426 7.16852 15.1328 10.0078 15.1328C12.8471 15.1328 15.1373 12.8426 15.1373 10.0033C15.1373 7.16406 12.8471 4.87388 10.0078 4.87388ZM10.0078 13.3382C8.17298 13.3382 6.67298 11.8426 6.67298 10.0033C6.67298 8.16406 8.16851 6.66853 10.0078 6.66853C11.8471 6.66853 13.3426 8.16406 13.3426 10.0033C13.3426 11.8426 11.8426 13.3382 10.0078 13.3382ZM16.5435 4.66406C16.5435 5.32924 16.0078 5.86049 15.3471 5.86049C14.6819 5.86049 14.1506 5.32478 14.1506 4.66406C14.1506 4.00335 14.6864 3.46763 15.3471 3.46763C16.0078 3.46763 16.5435 4.00335 16.5435 4.66406ZM19.9408 5.87835C19.8649 4.27567 19.4989 2.85603 18.3247 1.68638C17.1551 0.516741 15.7355 0.15067 14.1328 0.0703125C12.481 -0.0234375 7.53012 -0.0234375 5.87834 0.0703125C4.28013 0.146205 2.86049 0.512277 1.68638 1.68192C0.512276 2.85156 0.150669 4.27121 0.0703124 5.87388C-0.0234375 7.52567 -0.0234375 12.4766 0.0703124 14.1283C0.146205 15.731 0.512276 17.1507 1.68638 18.3203C2.86049 19.49 4.27566 19.856 5.87834 19.9364C7.53012 20.0301 12.481 20.0301 14.1328 19.9364C15.7355 19.8605 17.1551 19.4944 18.3247 18.3203C19.4944 17.1507 19.8605 15.731 19.9408 14.1283C20.0346 12.4766 20.0346 7.53013 19.9408 5.87835ZM17.8069 15.9007C17.4587 16.7757 16.7846 17.4498 15.9051 17.8025C14.5881 18.3248 11.4632 18.2042 10.0078 18.2042C8.55244 18.2042 5.42298 18.3203 4.11048 17.8025C3.23549 17.4542 2.56138 16.7801 2.2087 15.9007C1.68638 14.5837 1.80692 11.4587 1.80692 10.0033C1.80692 8.54799 1.69085 5.41853 2.2087 4.10603C2.55692 3.23103 3.23102 2.55692 4.11048 2.20424C5.42745 1.68192 8.55244 1.80246 10.0078 1.80246C11.4632 1.80246 14.5926 1.68638 15.9051 2.20424C16.7801 2.55246 17.4542 3.22656 17.8069 4.10603C18.3292 5.42299 18.2087 8.54799 18.2087 10.0033C18.2087 11.4587 18.3292 14.5882 17.8069 15.9007Z"/>
    </symbol>

    <symbol id="facebook" viewBox="0 0 10 19">
        <path d="M9.34469 10.5025L9.86325 7.12348H6.62096V4.93071C6.62096 4.00627 7.07388 3.10517 8.526 3.10517H10V0.228284C10 0.228284 8.66239 0 7.38349 0C4.71337 0 2.96806 1.61841 2.96806 4.54817V7.12348H0V10.5025H2.96806V18.6711H6.62096V10.5025H9.34469Z"/>
    </symbol>

    <symbol id="twitter" viewBox="0 0 15 12">
       <path d="M13.2563 2.99061C13.2656 3.12186 13.2656 3.25313 13.2656 3.38437C13.2656 7.38748 10.2188 12 4.65 12C2.93437 12 1.34063 11.5031 0 10.6406C0.243759 10.6687 0.47811 10.6781 0.731248 10.6781C2.14685 10.6781 3.45 10.2 4.49062 9.38439C3.15937 9.35625 2.04374 8.48438 1.65936 7.28437C1.84688 7.31248 2.03436 7.33124 2.23126 7.33124C2.50312 7.33124 2.77502 7.29372 3.02813 7.22813C1.64063 6.94686 0.599975 5.72812 0.599975 4.25624V4.21876C1.00309 4.44376 1.47187 4.58438 1.96871 4.60311C1.15309 4.05935 0.618733 3.13124 0.618733 2.08123C0.618733 1.51874 0.768705 1.00311 1.03122 0.553111C2.52185 2.39061 4.76249 3.59059 7.27497 3.72186C7.2281 3.49686 7.19997 3.26251 7.19997 3.02813C7.19997 1.35936 8.54997 0 10.2281 0C11.1 0 11.8875 0.365624 12.4406 0.95625C13.125 0.825006 13.7812 0.571868 14.3625 0.225002C14.1374 0.928142 13.6593 1.51877 13.0312 1.89374C13.6406 1.82815 14.2312 1.65936 14.775 1.42501C14.3625 2.02499 13.8469 2.55934 13.2563 2.99061Z"/>
    </symbol>

    <symbol id="arrow" viewBox="0 0 22 16">
      <path fill-rule="evenodd" d="M1 8a.5.5 0 0 1 .5-.5h11.793l-3.147-3.146a.5.5 0 0 1 .708-.708l4 4a.5.5 0 0 1 0 .708l-4 4a.5.5 0 0 1-.708-.708L13.293 8.5H1.5A.5.5 0 0 1 1 8z"/>
    </symbol>
</svg>